<svg xmlns="http://www.w3.org/2000/svg" viewBox="0 0 321.66 73.34"><defs><style>.cls-1{fill:#30589a;}.cls-1,.cls-2{stroke:#001d7e;stroke-miterlimit:10;}.cls-2{fill:#fff;}</style></defs><title>Recurso 2</title><g id="Capa_2" data-name="Capa 2"><g id="Capa_1-2" data-name="Capa 1"><path class="cls-1" d="M45.33.5C68.3.5,81.77,12.89,78,36.67S56.9,72.84,33.85,72.84-2.59,60.45,1.11,36.67,22.27.5,45.33.5Z"/><path class="cls-1" d="M91.54,2.76h21a2.12,2.12,0,0,1,2.09,2.45l-2.93,18.43a2.12,2.12,0,0,0,2.09,2.45h0a2.12,2.12,0,0,0,1.68-.83L132.13,3.59a2.12,2.12,0,0,1,1.68-.83H156a2.12,2.12,0,0,1,1.64,3.46L134.9,34.08a2.12,2.12,0,0,0-.26,2.28l15.42,31.17a2.12,2.12,0,0,1-1.9,3.06H124.35a2.12,2.12,0,0,1-1.92-1.22L112.09,47.21A2.12,2.12,0,0,0,110.17,46H110a2.12,2.12,0,0,0-2.09,1.79l-3.32,21a2.12,2.12,0,0,1-2.09,1.79h-21a2.12,2.12,0,0,1-2.09-2.45L89.45,4.55A2.12,2.12,0,0,1,91.54,2.76Z"/><path class="cls-1" d="M184.24,48.4,165.46,5.73a2.12,2.12,0,0,1,1.94-3h22.34a2.12,2.12,0,0,1,2,1.47l7.47,23.15a1.28,1.28,0,0,0,1.22.89h0a1.28,1.28,0,0,0,1.07-.59L217,3.73a2.12,2.12,0,0,1,1.78-1h21.71a2.12,2.12,0,0,1,1.69,3.4l-32,42.3a2.12,2.12,0,0,0-.4.95l-3.07,19.39a2.12,2.12,0,0,1-2.09,1.79h-21a2.12,2.12,0,0,1-2.09-2.45l2.95-18.54A2.12,2.12,0,0,0,184.24,48.4Z"/><path class="cls-1" d="M263.74,33.83l-13.81-28a2.12,2.12,0,0,1,1.9-3.06h23.08a2.12,2.12,0,0,1,2,1.35l4.83,12.42a2.12,2.12,0,0,0,3.71.45l9.39-13.32a2.12,2.12,0,0,1,1.73-.9H319a2.12,2.12,0,0,1,1.65,3.45L298.19,34a2.12,2.12,0,0,0-.26,2.26l15.12,31.29a2.12,2.12,0,0,1-1.91,3H287.1a2.12,2.12,0,0,1-2-1.31l-5.61-13.56a2.12,2.12,0,0,0-3.67-.44L265.34,69.71a2.12,2.12,0,0,1-1.71.87H240.27a2.12,2.12,0,0,1-1.65-3.44l24.88-31A2.12,2.12,0,0,0,263.74,33.83Z"/><path class="cls-2" d="M21.77,34.92,29.5,34a1.11,1.11,0,0,1,1.24,1L32.9,52.69a1.11,1.11,0,0,1-1,1.24l-7.73.94a1.11,1.11,0,0,1-1.24-1L20.8,36.15A1.11,1.11,0,0,1,21.77,34.92ZM35.23,49.3,33.68,36.58a17,17,0,0,1,1.45-9.17A45.85,45.85,0,0,1,39,21.33c.24-.33,1.16-1.34,1.1-1.82S40,17.89,39.75,16a2.17,2.17,0,0,1,1.89-2.4h.05a3,3,0,0,1,3,1.62A10.23,10.23,0,0,1,45.72,23a21.9,21.9,0,0,1-1.2,4.1s-.37.71,1,.5l9-1.13a2.81,2.81,0,0,1,3,2.88A2.91,2.91,0,0,1,56,32.36a.15.15,0,0,0-.06.21.17.17,0,0,0,.08.07,3.38,3.38,0,0,1,2.21,2.47,2.49,2.49,0,0,1-1.82,3,.15.15,0,0,0-.09.2.15.15,0,0,0,.08.09,2.76,2.76,0,0,1,1.73,2.42,2.4,2.4,0,0,1-1.51,2.51.15.15,0,0,0-.08.2.16.16,0,0,0,.07.08,2.35,2.35,0,0,1,1.19,2,2.27,2.27,0,0,1-2,2.58L36.45,50.57s-1,.13-1.22-1.27Z"/></g></g></svg>