<svg xmlns="http://www.w3.org/2000/svg" viewBox="0 0 346.91 154.32"><defs><style>.cls-1,.cls-3{fill:#30589a;}.cls-1,.cls-2{stroke:#001d7e;stroke-miterlimit:10;}.cls-2,.cls-4{fill:#fff;}.cls-4{font-size:20.17px;font-family:ArialMT, Arial;}</style></defs><title>Recurso 4</title><g id="Capa_2" data-name="Capa 2"><g id="Capa_1-2" data-name="Capa 1"><path class="cls-1" d="M56.54,37.49c23,0,36.44,12.39,32.64,36.17s-21.07,36.17-44.13,36.17S8.62,97.44,12.33,73.66,33.48,37.49,56.54,37.49Z"/><path class="cls-1" d="M102.75,39.75h21a2.12,2.12,0,0,1,2.09,2.45l-2.93,18.43A2.12,2.12,0,0,0,125,63.08h0a2.12,2.12,0,0,0,1.68-.83l16.63-21.67a2.12,2.12,0,0,1,1.68-.83h22.16a2.12,2.12,0,0,1,1.64,3.46L146.11,71.06a2.12,2.12,0,0,0-.26,2.28l15.42,31.17a2.12,2.12,0,0,1-1.9,3.06H135.57a2.12,2.12,0,0,1-1.92-1.22L123.3,84.19A2.12,2.12,0,0,0,121.39,83h-.19a2.12,2.12,0,0,0-2.09,1.79l-3.32,21a2.12,2.12,0,0,1-2.09,1.79h-21a2.12,2.12,0,0,1-2.09-2.45l10.09-63.58A2.12,2.12,0,0,1,102.75,39.75Z"/><path class="cls-1" d="M195.46,85.38,176.67,42.72a2.12,2.12,0,0,1,1.94-3h22.34a2.12,2.12,0,0,1,2,1.47l7.47,23.15a1.28,1.28,0,0,0,1.22.89h0a1.28,1.28,0,0,0,1.07-.59l15.45-23.94a2.12,2.12,0,0,1,1.78-1h21.71a2.12,2.12,0,0,1,1.69,3.4l-32,42.3a2.12,2.12,0,0,0-.4.95l-3.07,19.39a2.12,2.12,0,0,1-2.09,1.79h-21a2.12,2.12,0,0,1-2.09-2.45l2.95-18.54A2.12,2.12,0,0,0,195.46,85.38Z"/><path class="cls-1" d="M275,70.82l-13.81-28a2.12,2.12,0,0,1,1.9-3.06h23.08a2.12,2.12,0,0,1,2,1.35l4.83,12.42a2.12,2.12,0,0,0,3.71.45L306,40.64a2.12,2.12,0,0,1,1.73-.9h22.49a2.12,2.12,0,0,1,1.65,3.45L309.4,71a2.12,2.12,0,0,0-.26,2.26l15.12,31.29a2.12,2.12,0,0,1-1.91,3H298.31a2.12,2.12,0,0,1-2-1.31L290.74,92.7a2.12,2.12,0,0,0-3.67-.44l-10.52,14.43a2.12,2.12,0,0,1-1.71.87H251.48a2.12,2.12,0,0,1-1.65-3.44l24.88-31A2.12,2.12,0,0,0,275,70.82Z"/><path class="cls-2" d="M33,71.9,40.71,71a1.11,1.11,0,0,1,1.24,1l2.17,17.75a1.11,1.11,0,0,1-1,1.24l-7.73.94a1.11,1.11,0,0,1-1.24-1L32,73.14A1.11,1.11,0,0,1,33,71.9ZM46.44,86.28,44.89,73.57a17,17,0,0,1,1.45-9.17,45.85,45.85,0,0,1,3.85-6.08c.24-.33,1.16-1.34,1.1-1.82S51.17,54.88,51,53a2.17,2.17,0,0,1,1.89-2.4h.05a3,3,0,0,1,3,1.62A10.23,10.23,0,0,1,56.93,60a21.9,21.9,0,0,1-1.2,4.1s-.37.71,1,.5l9-1.13a2.81,2.81,0,0,1,3,2.88,2.91,2.91,0,0,1-1.55,3.05.15.15,0,0,0-.06.21.17.17,0,0,0,.08.07A3.38,3.38,0,0,1,69.4,72.1a2.49,2.49,0,0,1-1.82,3,.15.15,0,0,0-.09.2.15.15,0,0,0,.08.09,2.76,2.76,0,0,1,1.73,2.42,2.4,2.4,0,0,1-1.51,2.51.15.15,0,0,0-.08.2.16.16,0,0,0,.07.08,2.35,2.35,0,0,1,1.19,2,2.27,2.27,0,0,1-2,2.58L47.66,87.55s-1,.13-1.22-1.27Z"/><rect class="cls-3" width="346.91" height="28.6"/><rect class="cls-3" y="118.71" width="346.91" height="35.6"/><text class="cls-4" transform="translate(15.6 142.32) scale(1.23 1)">Mercado Global de Servicios</text></g></g></svg>