<svg xmlns="http://www.w3.org/2000/svg" viewBox="0 0 330.66 82.34"><defs><style>.cls-1{fill:none;stroke:#fff;stroke-width:10px;}.cls-2{fill:#233186;}.cls-3{fill:#fff;stroke:#001d7e;stroke-miterlimit:10;}</style></defs><title>Recurso 5</title><g id="Capa_2" data-name="Capa 2"><g id="Capa_1-2" data-name="Capa 1"><path class="cls-1" d="M49.83,5c23,0,36.44,12.39,32.64,36.17S61.4,77.34,38.35,77.34,1.91,65,5.61,41.17,26.77,5,49.83,5Z"/><path class="cls-1" d="M96,7.26h21a2.12,2.12,0,0,1,2.09,2.45l-2.93,18.43a2.12,2.12,0,0,0,2.09,2.45h0a2.12,2.12,0,0,0,1.68-.83L136.63,8.09a2.12,2.12,0,0,1,1.68-.83h22.16a2.12,2.12,0,0,1,1.64,3.46L139.4,38.58a2.12,2.12,0,0,0-.26,2.28L154.57,72a2.12,2.12,0,0,1-1.9,3.06H128.85a2.12,2.12,0,0,1-1.92-1.22L116.59,51.71a2.12,2.12,0,0,0-1.92-1.22h-.19a2.12,2.12,0,0,0-2.09,1.79l-3.32,21A2.12,2.12,0,0,1,107,75.08h-21a2.12,2.12,0,0,1-2.09-2.45L93.95,9A2.12,2.12,0,0,1,96,7.26Z"/><path class="cls-1" d="M188.74,52.9,170,10.23a2.12,2.12,0,0,1,1.94-3h22.34a2.12,2.12,0,0,1,2,1.47l7.47,23.15a1.28,1.28,0,0,0,1.22.89h0a1.28,1.28,0,0,0,1.07-.59L221.46,8.23a2.12,2.12,0,0,1,1.78-1H245a2.12,2.12,0,0,1,1.69,3.4l-32,42.3a2.12,2.12,0,0,0-.4.95l-3.07,19.39a2.12,2.12,0,0,1-2.09,1.79H188a2.12,2.12,0,0,1-2.09-2.45l2.95-18.54A2.12,2.12,0,0,0,188.74,52.9Z"/><path class="cls-1" d="M268.24,38.33l-13.81-28a2.12,2.12,0,0,1,1.9-3.06h23.08a2.12,2.12,0,0,1,2,1.35L286.22,21a2.12,2.12,0,0,0,3.71.45l9.39-13.32a2.12,2.12,0,0,1,1.73-.9h22.49a2.12,2.12,0,0,1,1.65,3.45L302.69,38.5a2.12,2.12,0,0,0-.26,2.26L317.55,72a2.12,2.12,0,0,1-1.91,3H291.6a2.12,2.12,0,0,1-2-1.31L284,60.21a2.12,2.12,0,0,0-3.67-.44L269.84,74.21a2.12,2.12,0,0,1-1.71.87H244.77a2.12,2.12,0,0,1-1.65-3.44l24.88-31A2.12,2.12,0,0,0,268.24,38.33Z"/><path class="cls-2" d="M49.83,5c23,0,36.44,12.39,32.64,36.17S61.4,77.34,38.35,77.34,1.91,65,5.61,41.17,26.77,5,49.83,5Z"/><path class="cls-2" d="M96,7.26h21a2.12,2.12,0,0,1,2.09,2.45l-2.93,18.43a2.12,2.12,0,0,0,2.09,2.45h0a2.12,2.12,0,0,0,1.68-.83L136.63,8.09a2.12,2.12,0,0,1,1.68-.83h22.16a2.12,2.12,0,0,1,1.64,3.46L139.4,38.58a2.12,2.12,0,0,0-.26,2.28L154.57,72a2.12,2.12,0,0,1-1.9,3.06H128.85a2.12,2.12,0,0,1-1.92-1.22L116.59,51.71a2.12,2.12,0,0,0-1.92-1.22h-.19a2.12,2.12,0,0,0-2.09,1.79l-3.32,21A2.12,2.12,0,0,1,107,75.08h-21a2.12,2.12,0,0,1-2.09-2.45L93.95,9A2.12,2.12,0,0,1,96,7.26Z"/><path class="cls-2" d="M188.74,52.9,170,10.23a2.12,2.12,0,0,1,1.94-3h22.34a2.12,2.12,0,0,1,2,1.47l7.47,23.15a1.28,1.28,0,0,0,1.22.89h0a1.28,1.28,0,0,0,1.07-.59L221.46,8.23a2.12,2.12,0,0,1,1.78-1H245a2.12,2.12,0,0,1,1.69,3.4l-32,42.3a2.12,2.12,0,0,0-.4.95l-3.07,19.39a2.12,2.12,0,0,1-2.09,1.79H188a2.12,2.12,0,0,1-2.09-2.45l2.95-18.54A2.12,2.12,0,0,0,188.74,52.9Z"/><path class="cls-2" d="M268.24,38.33l-13.81-28a2.12,2.12,0,0,1,1.9-3.06h23.08a2.12,2.12,0,0,1,2,1.35L286.22,21a2.12,2.12,0,0,0,3.71.45l9.39-13.32a2.12,2.12,0,0,1,1.73-.9h22.49a2.12,2.12,0,0,1,1.65,3.45L302.69,38.5a2.12,2.12,0,0,0-.26,2.26L317.55,72a2.12,2.12,0,0,1-1.91,3H291.6a2.12,2.12,0,0,1-2-1.31L284,60.21a2.12,2.12,0,0,0-3.67-.44L269.84,74.21a2.12,2.12,0,0,1-1.71.87H244.77a2.12,2.12,0,0,1-1.65-3.44l24.88-31A2.12,2.12,0,0,0,268.24,38.33Z"/><path class="cls-3" d="M26.27,39.42,34,38.47a1.11,1.11,0,0,1,1.24,1L37.4,57.19a1.11,1.11,0,0,1-1,1.24l-7.73.94a1.11,1.11,0,0,1-1.24-1L25.3,40.65A1.11,1.11,0,0,1,26.27,39.42ZM39.73,53.8,38.18,41.08a17,17,0,0,1,1.45-9.17,45.85,45.85,0,0,1,3.85-6.08c.24-.33,1.16-1.34,1.1-1.82s-.13-1.62-.33-3.49a2.17,2.17,0,0,1,1.89-2.4h.05a3,3,0,0,1,3,1.62,10.23,10.23,0,0,1,1.06,7.73,21.9,21.9,0,0,1-1.2,4.1s-.37.71,1,.5l9-1.13a2.81,2.81,0,0,1,3,2.88,2.91,2.91,0,0,1-1.55,3.05.15.15,0,0,0-.06.21.17.17,0,0,0,.08.07,3.38,3.38,0,0,1,2.21,2.47,2.49,2.49,0,0,1-1.82,3,.15.15,0,0,0-.09.2.15.15,0,0,0,.08.09,2.76,2.76,0,0,1,1.73,2.42,2.4,2.4,0,0,1-1.51,2.51A.15.15,0,0,0,61,48a.16.16,0,0,0,.07.08,2.35,2.35,0,0,1,1.19,2,2.27,2.27,0,0,1-2,2.58L41,55.07s-1,.13-1.22-1.27Z"/></g></g></svg>